<?xml version="1.0" encoding="UTF-8"?>
<svg width="169.33mm" height="25.548mm" version="1.1" viewBox="0 0 169.33 25.548" xmlns="http://www.w3.org/2000/svg">
<g transform="translate(-16.699 -146.71)">
<path transform="matrix(.26458 0 0 .26458 16.699 146.71)" d="m0.28711 0-0.029297 9.4941-0.25781 77.516a9.495 9.495 0 0 0 9.4941 9.5293h42.248 9.4941v-18.988h-9.4941-32.721l0.22461-67.994 0.035156-9.4941-18.994-0.0625zm73.1 0.035156v9.4922 77.518 9.4941h18.988v-9.4941-77.518-9.4922h-18.988zm42.496 0a9.495 9.495 0 0 0-9.6289 9.4922v77.518 9.4941h18.986v-9.4941-47.125l36.375 52.529a9.495 9.495 0 0 0 17.301-5.4043v-77.518-9.4922h-18.986v9.4922 47.125l-36.375-52.527a9.495 9.495 0 0 0-7.6719-4.0898zm76.557 0v9.4922 77.518 9.4941h18.988v-9.4941-77.518-9.4922h-18.988zm280.7 0c-5.243 6.8032e-4 -9.4935 4.2492-9.4941 9.4922v77.518c6.5e-4 5.243 4.2512 9.4935 9.4941 9.4941h51.221c5.243-6.8e-4 9.4935-4.2511 9.4941-9.4941v-35.83c-6.4e-4 -5.243-4.2512-9.4935-9.4941-9.4941h-19.326-9.4941v18.988h9.4941 9.832v16.842h-32.232v-58.529h41.727 9.4941v-18.986h-9.4941-51.221zm122.46 0c-3.734 1.1339e-4 -7.1218 2.1896-8.6562 5.5937l-40.934 90.91h20.824l20.467-45.455 8.2988-18.434 20.215 44.9h-27.16l-8.5508 18.988h7.9453 42.453c6.8908-7.55e-4 11.486-7.1116 8.6562-13.395l-34.902-77.516c-1.5345-3.4041-4.9222-5.5936-8.6562-5.5937zm-313.18 0.027344 32.295 90.184c3.008 8.3853 14.867 8.3853 17.875 0l32.301-90.184h-20.168l-21.068 58.828-21.068-58.828h-20.166zm104.12 0a9.494 9.494 0 0 0-9.4941 9.4941 9.494 9.494 0 0 0 9.4941 9.4941h55.465a9.494 9.494 0 0 0 9.5-9.4941 9.494 9.494 0 0 0-9.5-9.4941h-55.465zm-136.43 0.0019531-30.197 42.742c-2.3198 3.2839-2.3198 7.6732 0 10.957l30.217 42.775h23.248l-34.088-48.256 23.51-33.275 10.559-14.943h-23.248zm136.43 38.775a9.494 9.494 0 0 0-9.4941 9.4941 9.494 9.494 0 0 0 9.4941 9.4941h55.465a9.494 9.494 0 0 0 9.5-9.4941 9.494 9.494 0 0 0-9.5-9.4941h-55.465zm0 38.734a9.494 9.494 0 0 0-9.4941 9.4941 9.494 9.494 0 0 0 9.4941 9.4922h55.465a9.494 9.494 0 0 0 9.5-9.4922 9.494 9.494 0 0 0-9.5-9.4941h-55.465z" color="#000000" fill="#fff" stroke-linecap="round" stroke-linejoin="round" stroke-width="2.937" style="-inkscape-stroke:none"/>
</g>
</svg>

